<?xml version="1.0" encoding="UTF-8"?><svg id="Layer_1" xmlns="http://www.w3.org/2000/svg" viewBox="0 0 283.89 283.63"><defs><style>.cls-1{fill:#961a1d;}</style></defs><path class="cls-1" d="M42.19,40.61c.08,.07,.11,.12,.09,.15-.43,.51-.62,1.17-.57,1.98,.05,.81,.33,1.68,.84,2.61l6.92,12.45c.04,.06,0,.16-.11,.3-.12,.14-.21,.19-.27,.16l-7.81-2.11,3.8,6.82c.04,.06,0,.16-.11,.3-.12,.14-.21,.19-.27,.16l-15.59-4.23c-.61-.17-1.07-.27-1.37-.3-.3-.03-.56,0-.77,.09s-.43,.27-.65,.53c-.04,.04-.09,.03-.18-.04-.08-.07-.11-.13-.07-.17,.17-.21,.3-.34,.39-.41,.26-.25,.58-.6,.95-1.03,.78-.92,1.43-1.7,1.94-2.36,.14-.19,.32-.42,.54-.68,.04-.04,.09-.03,.18,.04,.08,.07,.11,.13,.07,.17-.29,.34-.46,.62-.52,.82-.05,.2,0,.38,.19,.53,.23,.2,.82,.43,1.76,.68l11,2.99-2.29-4.18-6.77-1.83c-.69-.19-1.25-.28-1.66-.28-.41,0-.72,.12-.92,.35-.03,.04-.09,.03-.18-.04-.08-.07-.11-.13-.07-.17,.12-.14,.26-.29,.44-.46,.18-.17,.41-.42,.7-.77,.67-.78,1.21-1.44,1.62-1.99,.1-.15,.25-.33,.43-.55,.03-.04,.09-.03,.18,.04,.08,.07,.11,.13,.07,.17-.16,.19-.26,.35-.29,.48s.02,.25,.14,.35c.23,.2,.89,.44,1.97,.72l2.68,.72-.94-1.69c-.52-.97-.99-1.62-1.38-1.96s-.74-.34-1.03,0c-.04,.04-.09,.03-.18-.04-.08-.07-.11-.13-.07-.17,.09-.11,.21-.22,.34-.33,.13-.11,.42-.43,.86-.95,.2-.23,.42-.53,.68-.88l.63-.78s.08,0,.16,.06c.08,.07,.11,.12,.09,.15-.78,.92-.62,2.37,.48,4.35l1.39,2.49,7.3,1.96-4.83-8.69c-.3-.54-.63-.96-.98-1.26-.42-.36-.85-.54-1.28-.54s-.79,.18-1.1,.54c-.04,.04-.09,.03-.18-.04-.08-.07-.11-.13-.07-.17l.83-.93c.45-.47,.85-.91,1.2-1.32,.23-.27,.49-.6,.76-.98l.73-.9s.08,0,.16,.06Z"/><path class="cls-1" d="M61.95,40.19s.09-.06,.14-.07c.05,0,.08,0,.1,0,.78,1.18,1.55,2.2,2.31,3.07,.09,.11,.14,.21,.14,.29,0,.08-.06,.18-.18,.28l-9.02,7.81s-.1,.01-.17-.07c-.07-.08-.09-.14-.04-.18,.44-.38,.72-.69,.86-.92,.14-.24,.16-.49,.05-.74-.1-.26-.33-.59-.68-1l-8.19-9.45c-.35-.41-.65-.68-.88-.81-.23-.13-.48-.15-.75-.04-.27,.1-.61,.34-1.04,.7-.04,.04-.1,.01-.17-.07-.07-.08-.09-.14-.04-.18l8.65-7.5c.14-.12,.26-.12,.36,0l2.39,2.68s0,.08-.06,.16c-.06,.08-.12,.1-.17,.07-.9-.6-1.78-.87-2.62-.8-.85,.07-1.69,.47-2.54,1.2l-.61,.53c-.41,.35-.63,.7-.67,1.04-.04,.34,.1,.7,.42,1.06l3.61,4.16,1.69-1.47c.79-.68,1.28-1.34,1.46-1.98,.19-.64,.07-1.2-.36-1.69-.04-.04-.02-.09,.06-.16,.07-.06,.13-.08,.17-.04l1.57,1.85,.87,.96c.43,.44,.76,.79,1,1.07,.02,.03,0,.08-.09,.15-.08,.07-.13,.09-.16,.06-.48-.56-1.08-.81-1.78-.76-.71,.05-1.46,.42-2.26,1.12l-1.67,1.45,4,4.61c.34,.39,.67,.62,.98,.68,.31,.06,.64-.05,.96-.33l.67-.58c1.06-.92,1.72-1.87,1.98-2.86,.26-.99,.15-2.07-.34-3.24-.02-.03,0-.06,.05-.11Z"/><path class="cls-1" d="M68.93,37.71c.26,.39,.48,.65,.66,.77,.18,.13,.37,.17,.58,.11,.21-.06,.51-.22,.9-.48l.76-.52c1.16-.79,1.95-1.79,2.38-2.98,.43-1.2,.42-2.42-.02-3.67-.02-.03,0-.06,.06-.11,.03-.02,.07-.03,.12-.04,.05,0,.08,0,.09,.02,.87,1.56,1.64,2.83,2.31,3.81,.08,.12,.11,.22,.1,.31-.02,.09-.08,.17-.2,.25l-10.52,7.19s-.07-.01-.14-.1c-.06-.09-.08-.14-.05-.16,.48-.33,.8-.6,.96-.82,.16-.22,.21-.47,.15-.74-.07-.27-.25-.63-.56-1.08l-7.06-10.32c-.3-.45-.57-.74-.79-.9-.22-.15-.48-.19-.75-.12-.28,.07-.65,.26-1.11,.58-.03,.02-.08-.01-.14-.1-.06-.09-.08-.14-.05-.16l1.15-.75c.7-.44,1.28-.81,1.72-1.11s1-.71,1.66-1.2l1.12-.8s.1,0,.16,.09,.07,.15,.02,.18c-.46,.31-.77,.59-.94,.82-.17,.23-.21,.48-.14,.75s.26,.62,.57,1.07l6.98,10.21Z"/><path class="cls-1" d="M81.72,13.3c.83-.27,1.51-.42,2.04-.45,.17-.03,.29-.01,.37,.04,.08,.05,.18,.16,.3,.32l2,3.19s0,.1-.07,.16c-.07,.06-.13,.06-.18,0-1.19-.99-2.42-1.59-3.69-1.81-1.27-.22-2.5-.03-3.7,.59-1.59,.81-2.51,2.02-2.78,3.64-.27,1.61,.1,3.4,1.11,5.38,.75,1.47,1.68,2.7,2.78,3.68,1.1,.98,2.25,1.6,3.48,1.88,1.22,.27,2.38,.13,3.47-.42,1.03-.52,1.77-1.33,2.23-2.43,.46-1.09,.65-2.5,.58-4.23-.02-.07,.02-.12,.12-.15,.1-.03,.16-.02,.18,.03l1.31,3.45c.07,.21,.09,.35,.08,.43s-.07,.18-.18,.32c-1.16,1.26-2.49,2.27-3.99,3.04-1.96,1-3.79,1.45-5.5,1.34-1.71-.1-3.18-.6-4.41-1.47-1.23-.88-2.17-1.97-2.84-3.26-.78-1.52-1.06-3.08-.83-4.67,.23-1.59,.86-3.06,1.9-4.4,1.04-1.34,2.35-2.41,3.92-3.22,.71-.36,1.47-.68,2.3-.95Z"/><path class="cls-1" d="M97.45,24.12c-1.49-.33-2.78-1.02-3.88-2.06-1.1-1.05-1.9-2.32-2.4-3.82-.59-1.76-.65-3.41-.18-4.96,.47-1.55,1.29-2.88,2.47-3.97,1.18-1.1,2.5-1.89,3.95-2.37,1.62-.54,3.17-.64,4.66-.29,1.48,.35,2.76,1.04,3.83,2.06,1.07,1.03,1.84,2.24,2.31,3.64,.52,1.55,.59,3.12,.2,4.69-.39,1.57-1.14,2.96-2.26,4.17-1.12,1.21-2.49,2.08-4.09,2.62-1.59,.53-3.12,.63-4.61,.3Zm7.54-2.92c.57-.81,.9-1.82,.97-3.03,.07-1.21-.14-2.56-.64-4.04-.52-1.57-1.23-2.89-2.12-3.97-.89-1.08-1.91-1.82-3.05-2.21-1.14-.4-2.31-.39-3.53,.01-1.55,.52-2.55,1.5-3,2.95-.45,1.45-.32,3.22,.38,5.32,.55,1.66,1.3,3.05,2.24,4.19,.94,1.14,1.97,1.93,3.1,2.37,1.12,.44,2.24,.48,3.35,.1,.96-.32,1.72-.88,2.3-1.69Z"/><path class="cls-1" d="M133.77,16.58c.02,.11,0,.16-.03,.17-.6,.09-1.09,.16-1.45,.19l-1.98,.28-2,.33c-.34,.07-.8,.15-1.38,.24-.05,0-.09-.04-.1-.15-.02-.11,0-.16,.06-.17,.75-.11,1.24-.28,1.48-.5,.24-.22,.32-.61,.23-1.18l-.1-.45-2.23-10.83-3.52,13.73c-.02,.08-.09,.12-.2,.14-.11,.02-.18,0-.23-.07l-8.72-11.8,1.26,9.67c.13,.96,.44,1.69,.92,2.17s1.09,.67,1.82,.55c.05,0,.09,.04,.1,.15,.02,.11,0,.16-.06,.17-.48,.07-.85,.12-1.12,.15l-1.47,.2-1.68,.28c-.28,.06-.66,.13-1.14,.2-.05,0-.09-.04-.1-.15-.02-.11,0-.16,.06-.17,.73-.11,1.27-.48,1.61-1.09,.34-.62,.45-1.4,.32-2.34l-1.45-11.09-.03-.02c-.46-.6-.9-1.03-1.33-1.27-.43-.24-.89-.33-1.39-.25-.05,0-.09-.04-.1-.15-.02-.11,0-.16,.06-.17l1.26-.17c.25-.02,.57-.06,.96-.12l1.41-.24c.16-.04,.36-.08,.61-.12,.23-.04,.42,.02,.57,.16s.44,.49,.87,1.04l7.49,10.02,3.29-12.41c.07-.27,.15-.46,.25-.57,.1-.12,.25-.19,.44-.22,.16-.02,.34-.04,.55-.06,.21-.01,.44-.04,.71-.08l1.57-.27c.25-.06,.6-.12,1.06-.19,.05,0,.09,.04,.1,.15,.02,.11,0,.16-.06,.17-.84,.13-1.42,.39-1.74,.79-.32,.4-.41,.95-.27,1.65l2.5,12.02c.12,.55,.25,.94,.38,1.17,.14,.23,.34,.38,.61,.43,.27,.05,.68,.03,1.23-.05,.04,0,.06,.05,.08,.15Z"/><path class="cls-1" d="M147.2,12.51c.05,0,.1,.01,.15,.04,.05,.03,.07,.05,.07,.07-.16,1.41-.23,2.69-.21,3.84,0,.14-.02,.25-.08,.31s-.16,.1-.32,.1l-11.93,.19c-.05,0-.08-.05-.08-.16,0-.11,.02-.16,.08-.16,.58,0,.99-.06,1.25-.16,.26-.09,.43-.27,.52-.54,.09-.26,.12-.66,.12-1.2l-.2-12.5c0-.54-.06-.94-.15-1.19-.09-.25-.28-.42-.55-.52-.27-.09-.69-.14-1.24-.13-.05,0-.08-.05-.08-.16s.02-.16,.08-.16L146.05,0c.18,0,.27,.08,.27,.24l.11,3.59s-.05,.06-.15,.08-.16,0-.18-.05c-.3-1.04-.8-1.81-1.5-2.3-.69-.49-1.6-.73-2.71-.71h-.81c-.54,.02-.93,.15-1.18,.38-.25,.24-.37,.6-.36,1.09l.09,5.51,2.24-.04c1.04-.02,1.84-.21,2.39-.58,.55-.37,.82-.88,.81-1.53,0-.05,.05-.08,.15-.08,.1,0,.15,.02,.15,.08v2.43l.06,1.3c.05,.61,.07,1.1,.08,1.46,0,.04-.05,.05-.16,.06-.11,0-.16-.02-.16-.05-.01-.74-.3-1.31-.88-1.73-.57-.41-1.39-.61-2.45-.59l-2.21,.04,.1,6.1c0,.52,.11,.91,.32,1.16,.2,.25,.52,.37,.95,.36h.89c1.4-.04,2.52-.34,3.36-.93,.84-.59,1.44-1.49,1.82-2.7,0-.04,.04-.05,.11-.06Z"/><path class="cls-1" d="M157.62,5.57c-.03,.05-.08,.06-.17,.04s-.13-.06-.12-.12c.19-.7,.42-1.6,.7-2.72,.28-1.11,.46-1.95,.56-2.52,.01-.09,.07-.12,.17-.11,.1,.02,.14,.07,.12,.16-.07,.39,.41,.67,1.42,.84,1.52,.31,3.3,.63,5.34,.98,1.05,.18,2.16,.34,3.34,.5l1.82,.28c.67,.11,1.17,.15,1.5,.11,.33-.04,.55-.18,.69-.43,.03-.07,.09-.09,.19-.08,.1,.02,.14,.06,.13,.13-.14,.52-.34,1.37-.6,2.53-.26,1.16-.45,2.1-.57,2.81,0,.05-.06,.07-.15,.06-.09-.02-.14-.05-.15-.11-.04-1.41-.36-2.52-.98-3.33-.61-.81-1.45-1.3-2.52-1.48-.51-.09-.88-.03-1.08,.16-.21,.19-.36,.6-.46,1.22l-2.06,12.28c-.09,.55-.11,.96-.04,1.23,.06,.27,.24,.47,.53,.61,.29,.14,.76,.26,1.42,.37,.05,0,.07,.07,.05,.17s-.05,.16-.11,.15c-.64-.11-1.14-.2-1.51-.28l-2.21-.4-2.16-.33c-.38-.04-.89-.12-1.55-.23-.05,0-.07-.07-.05-.17,.02-.11,.05-.16,.11-.15,.64,.11,1.12,.14,1.45,.11,.33-.04,.57-.17,.73-.41,.16-.24,.28-.62,.37-1.16l2.06-12.33c.1-.6,.09-1.03-.03-1.27s-.43-.4-.93-.48c-2.11-.35-3.86,.77-5.25,3.36Z"/><path class="cls-1" d="M175.77,20.58c-1-1.14-1.64-2.46-1.91-3.96-.27-1.49-.16-3,.32-4.5,.57-1.77,1.5-3.14,2.79-4.11s2.74-1.55,4.34-1.74,3.13-.05,4.59,.42c1.63,.52,2.94,1.36,3.93,2.52,.99,1.16,1.61,2.47,1.87,3.93,.26,1.46,.16,2.9-.29,4.3-.5,1.56-1.37,2.86-2.61,3.9-1.24,1.04-2.67,1.71-4.29,2.03-1.62,.31-3.24,.21-4.85-.31-1.59-.51-2.89-1.34-3.9-2.48Zm7.8,2.1c.94-.31,1.8-.94,2.57-1.87,.77-.93,1.4-2.15,1.87-3.64,.5-1.58,.72-3.06,.63-4.46-.08-1.4-.46-2.59-1.15-3.59s-1.63-1.69-2.85-2.08c-1.56-.5-2.95-.3-4.16,.61-1.22,.91-2.16,2.41-2.84,4.52-.53,1.66-.76,3.23-.67,4.7,.08,1.47,.45,2.72,1.1,3.74,.65,1.02,1.53,1.71,2.64,2.07,.96,.31,1.91,.31,2.85,0Z"/><path class="cls-1" d="M212.35,37.97c-.05,.09-.1,.13-.15,.1-.55-.31-.98-.57-1.3-.77l-1.79-1.06-2.12-1.18c-.29-.15-.68-.36-1.16-.63-.05-.03-.04-.09,0-.18s.1-.13,.15-.1c.58,.33,1.02,.53,1.33,.61s.57,.03,.79-.14c.22-.17,.47-.49,.74-.97l3.08-5.39-7.57-4.33-3.08,5.39c-.27,.47-.42,.84-.46,1.12-.04,.28,.06,.54,.28,.77,.22,.23,.62,.51,1.2,.84,.03,.02,.02,.07-.03,.17s-.1,.13-.13,.11c-.55-.31-.98-.57-1.3-.77l-2.03-1.19-1.77-.98c-.32-.16-.76-.4-1.3-.71-.03-.02-.02-.07,.03-.17s.1-.13,.13-.11c.55,.31,.97,.5,1.26,.57s.55,.01,.78-.16,.47-.49,.74-.96l6.21-10.85c.27-.47,.42-.84,.45-1.11s-.05-.52-.24-.75c-.19-.22-.56-.49-1.09-.79-.05-.03-.04-.09,0-.18,.05-.09,.1-.13,.15-.1l1.25,.75c.7,.44,1.27,.79,1.71,1.04,.59,.34,1.29,.72,2.09,1.13l1.3,.71s.02,.07-.03,.17-.1,.13-.13,.11c-.56-.32-1-.51-1.32-.57-.32-.06-.59,0-.83,.17s-.48,.49-.75,.96l-2.72,4.76,7.57,4.33,2.72-4.76c.27-.47,.42-.84,.46-1.12,.04-.28-.05-.54-.26-.79s-.61-.53-1.18-.86c-.05-.03-.04-.09,0-.18s.1-.13,.15-.1l1.14,.68c.76,.48,1.46,.9,2.08,1.25,.42,.24,1.03,.57,1.83,.99l1.33,.73s.04,.09,0,.18-.1,.13-.15,.1c-.53-.3-.95-.49-1.26-.55s-.57,0-.78,.16-.45,.49-.72,.96l-6.21,10.85c-.27,.47-.42,.84-.47,1.12-.04,.28,.04,.52,.24,.75,.21,.22,.58,.49,1.13,.8,.05,.03,.04,.09,0,.18Z"/><path class="cls-1" d="M225.72,43.14s.07,.07,.09,.12c.02,.05,.02,.08,.01,.09-1,1-1.85,1.96-2.55,2.87-.09,.11-.17,.18-.25,.2s-.19-.02-.31-.12l-9.45-7.29s-.03-.09,.03-.18c.07-.09,.12-.11,.16-.08,.46,.35,.82,.57,1.08,.66,.26,.09,.51,.06,.74-.1,.23-.15,.51-.44,.84-.87l7.63-9.9c.33-.43,.54-.77,.62-1.02,.08-.25,.05-.5-.11-.75s-.45-.54-.89-.88c-.04-.03-.03-.09,.04-.18,.07-.09,.12-.11,.16-.08l9.07,6.99c.14,.11,.16,.23,.07,.36l-2.15,2.88s-.08,.02-.17-.03c-.09-.05-.12-.1-.11-.15,.41-1,.5-1.91,.26-2.73s-.79-1.57-1.68-2.25l-.64-.49c-.43-.33-.81-.48-1.15-.45-.34,.03-.66,.24-.96,.62l-3.36,4.36,1.78,1.37c.83,.64,1.57,.98,2.23,1.04,.66,.06,1.19-.17,1.59-.69,.03-.04,.09-.03,.17,.03s.1,.11,.07,.15l-1.5,1.91-.77,1.04c-.35,.51-.63,.9-.85,1.19-.02,.03-.08,0-.16-.06-.09-.07-.12-.11-.1-.14,.45-.58,.58-1.22,.39-1.9-.19-.68-.71-1.35-1.55-1.99l-1.75-1.35-3.73,4.83c-.32,.41-.48,.78-.47,1.1,0,.32,.18,.61,.52,.88l.71,.54c1.11,.86,2.18,1.32,3.2,1.38,1.02,.06,2.06-.27,3.11-.98,.02-.03,.06-.02,.12,.02Z"/><path class="cls-1" d="M229.53,49.48c-.33,.34-.54,.6-.63,.8-.09,.2-.09,.4,0,.59,.1,.2,.32,.46,.65,.78l.66,.64c1.01,.98,2.14,1.56,3.4,1.73,1.26,.18,2.45-.07,3.59-.75,.03-.03,.06-.01,.12,.04,.03,.02,.04,.06,.06,.11s.01,.08,0,.1c-1.36,1.17-2.45,2.17-3.28,3.03-.1,.1-.2,.16-.28,.16-.09,0-.19-.05-.29-.15l-9.14-8.88s0-.08,.07-.15c.08-.08,.13-.1,.15-.08,.41,.4,.75,.66,1,.78s.5,.12,.75,0c.25-.12,.57-.37,.94-.76l8.71-8.97c.38-.39,.62-.71,.72-.96,.1-.25,.09-.5-.03-.76-.12-.26-.39-.58-.79-.97-.03-.02,0-.08,.07-.15s.13-.1,.15-.08l.97,.98c.57,.6,1.05,1.09,1.43,1.47,.39,.38,.89,.84,1.51,1.39l1.01,.94s.02,.1-.05,.17-.13,.1-.17,.06c-.4-.39-.73-.64-1-.76-.26-.12-.52-.11-.76,.01-.25,.12-.56,.38-.93,.77l-8.61,8.87Z"/><path class="cls-1" d="M239.46,60.02c-.36,.3-.6,.54-.71,.73-.11,.19-.13,.38-.06,.59,.08,.21,.26,.49,.56,.85l.58,.71c.89,1.09,1.95,1.79,3.18,2.11,1.23,.32,2.44,.21,3.65-.34,.03-.02,.06,0,.11,.05,.02,.03,.04,.07,.05,.12s0,.08,0,.1c-1.48,1-2.68,1.88-3.6,2.64-.11,.09-.21,.13-.3,.12-.09,0-.18-.07-.27-.18l-8.08-9.85s0-.08,.09-.14c.08-.07,.14-.09,.16-.06,.37,.45,.67,.74,.9,.89s.48,.17,.75,.08c.26-.09,.61-.31,1.02-.65l9.66-7.93c.42-.34,.69-.63,.82-.87,.13-.24,.15-.49,.06-.76-.09-.27-.32-.62-.67-1.05-.02-.03,0-.08,.09-.14,.08-.07,.14-.09,.16-.06l.85,1.08c.5,.66,.92,1.2,1.26,1.62,.34,.42,.79,.94,1.34,1.55l.89,1.05s0,.1-.07,.17c-.08,.07-.14,.08-.18,.04-.35-.43-.66-.72-.9-.87-.25-.15-.5-.17-.76-.07-.26,.1-.6,.32-1.01,.66l-9.56,7.84Z"/><path class="cls-1" d="M279.85,106.56c-.1,.04-.16,.04-.17,0-.22-.63-.7-1.12-1.43-1.49s-1.62-.56-2.68-.58l-14.24-.27c-.07,0-.14-.07-.2-.24-.06-.17-.06-.28,0-.32l5.75-5.69-7.81-.14c-.07,0-.14-.07-.2-.24-.06-.17-.06-.28,0-.32l11.48-11.36c.45-.45,.77-.79,.95-1.04,.18-.25,.28-.48,.31-.71,.02-.23-.02-.5-.13-.83-.02-.05,.02-.09,.13-.13,.1-.04,.16-.03,.18,.02,.09,.25,.14,.44,.16,.54,.09,.35,.22,.8,.42,1.34,.4,1.14,.76,2.09,1.07,2.86,.09,.21,.2,.48,.31,.81,.02,.05-.02,.09-.13,.13s-.16,.03-.18-.02c-.15-.42-.3-.71-.45-.86-.15-.15-.33-.18-.55-.11-.29,.1-.78,.49-1.47,1.18l-8.11,8.02,4.77,.12,4.98-4.94c.51-.5,.87-.94,1.08-1.3,.21-.36,.26-.68,.16-.97-.02-.05,.02-.09,.13-.13,.1-.04,.16-.03,.18,.02,.06,.17,.12,.37,.17,.61,.06,.24,.16,.57,.31,.99,.34,.97,.64,1.77,.9,2.4,.08,.16,.16,.38,.26,.65,.02,.05-.02,.09-.13,.13s-.16,.03-.18-.02c-.08-.24-.18-.4-.27-.49-.1-.09-.22-.11-.38-.05-.29,.1-.83,.55-1.62,1.34l-1.97,1.96,1.93,.03c1.1,.03,1.89-.04,2.39-.21s.66-.47,.51-.9c-.02-.05,.02-.09,.13-.13,.1-.04,.16-.03,.18,.02,.05,.14,.09,.29,.12,.46,.03,.17,.16,.58,.39,1.22,.1,.29,.24,.63,.42,1.03l.36,.93s-.03,.07-.13,.1c-.1,.04-.16,.04-.17,0-.4-1.14-1.74-1.73-4-1.77l-2.85-.05-5.36,5.33,9.94,.18c.61,.01,1.14-.06,1.58-.22,.53-.19,.9-.46,1.11-.83,.21-.37,.24-.78,.08-1.22-.02-.05,.02-.09,.13-.13,.1-.04,.16-.03,.18,.02l.39,1.18c.18,.62,.36,1.19,.54,1.7,.12,.34,.27,.72,.46,1.15l.41,1.09s-.03,.07-.13,.1Z"/><path class="cls-1" d="M270.26,123.86c0,.05,0,.1-.01,.15-.02,.05-.04,.08-.05,.08-1.41,.08-2.69,.23-3.82,.44-.14,.03-.25,.02-.32-.02s-.12-.14-.15-.3l-2.21-11.73c0-.05,.04-.09,.14-.11s.16,0,.17,.05c.11,.57,.23,.97,.37,1.21,.14,.24,.34,.38,.61,.42,.27,.04,.67,.01,1.21-.09l12.29-2.31c.53-.1,.91-.22,1.14-.35,.23-.14,.37-.34,.42-.63,.05-.28,.02-.7-.08-1.25,0-.05,.04-.09,.14-.11,.11-.02,.16,0,.17,.05l2.11,11.25c.03,.18-.03,.28-.19,.31l-3.52,.72s-.07-.04-.11-.13c-.04-.09-.03-.16,.02-.18,.97-.48,1.64-1.1,2.01-1.86,.37-.77,.45-1.7,.24-2.79l-.15-.8c-.1-.53-.29-.9-.56-1.1-.28-.2-.65-.26-1.13-.17l-5.41,1.02,.41,2.2c.19,1.03,.52,1.78,.97,2.26s1,.66,1.64,.54c.05-.01,.09,.03,.11,.13,.02,.1,0,.15-.05,.16l-2.39,.42-1.27,.27c-.59,.15-1.07,.26-1.42,.32-.04,0-.06-.04-.08-.15-.02-.11-.01-.16,.02-.17,.73-.14,1.24-.52,1.55-1.16,.31-.64,.37-1.48,.17-2.52l-.41-2.18-6,1.13c-.51,.1-.88,.26-1.09,.51-.21,.24-.28,.57-.2,1l.16,.88c.26,1.38,.75,2.43,1.47,3.16s1.71,1.17,2.97,1.34c.04,0,.06,.03,.07,.1Z"/><path class="cls-1" d="M268.88,131.14c-.47,.03-.8,.09-1,.18s-.33,.24-.39,.45c-.06,.21-.07,.55-.04,1.02l.07,.92c.1,1.4,.56,2.59,1.38,3.56s1.88,1.58,3.18,1.83c.04,0,.06,.03,.06,.1,0,.04,0,.08-.03,.12-.02,.05-.04,.07-.06,.07-1.79-.03-3.28,0-4.46,.08-.14,.01-.25-.01-.32-.07s-.11-.16-.12-.3l-.91-12.71s.05-.06,.16-.07c.11,0,.16,0,.17,.04,.04,.57,.12,.99,.22,1.24,.11,.25,.3,.42,.56,.5,.27,.08,.67,.1,1.21,.06l12.47-.89c.54-.04,.93-.12,1.17-.23,.24-.12,.41-.31,.49-.59s.1-.69,.06-1.25c0-.04,.05-.06,.16-.07,.11,0,.16,0,.17,.04l.07,1.38c.02,.83,.05,1.51,.09,2.05,.04,.54,.1,1.22,.2,2.04l.12,1.37c0,.05-.05,.08-.16,.09-.11,0-.16-.02-.17-.07-.04-.56-.12-.97-.24-1.23-.12-.26-.31-.43-.58-.5-.27-.07-.67-.09-1.21-.05l-12.33,.88Z"/><path class="cls-1" d="M283.53,154.45c-.18,.86-.39,1.52-.63,1.99-.06,.16-.14,.26-.22,.3-.08,.04-.23,.07-.42,.1l-3.76,.12c-.05,0-.09-.05-.1-.14-.01-.09,.02-.14,.09-.16,1.45-.54,2.59-1.29,3.42-2.28,.83-.98,1.28-2.15,1.35-3.5,.09-1.78-.49-3.19-1.75-4.23-1.26-1.04-3-1.62-5.21-1.74-1.65-.09-3.18,.1-4.57,.55-1.39,.46-2.52,1.14-3.37,2.06-.85,.92-1.31,1.99-1.38,3.21-.06,1.15,.26,2.2,.98,3.15,.72,.95,1.84,1.82,3.36,2.63,.07,.02,.09,.08,.07,.18-.02,.1-.06,.15-.12,.14l-3.64-.6c-.21-.05-.35-.1-.41-.14-.06-.05-.12-.16-.19-.32-.51-1.63-.72-3.29-.62-4.98,.12-2.19,.65-4,1.6-5.43,.95-1.43,2.11-2.45,3.49-3.07,1.38-.62,2.79-.89,4.25-.81,1.71,.09,3.19,.63,4.46,1.63,1.26,1,2.21,2.28,2.85,3.86,.64,1.58,.91,3.24,.81,5-.04,.79-.15,1.61-.33,2.47Z"/><path class="cls-1" d="M266.28,162.63c1.03-1.12,2.27-1.89,3.73-2.32,1.46-.43,2.96-.48,4.51-.16,1.82,.37,3.28,1.15,4.38,2.34,1.11,1.18,1.84,2.56,2.2,4.13s.38,3.11,.07,4.6c-.34,1.67-1.04,3.07-2.09,4.17-1.05,1.11-2.28,1.87-3.71,2.28s-2.86,.47-4.31,.17c-1.6-.33-2.99-1.06-4.16-2.18-1.17-1.12-1.99-2.47-2.47-4.05-.48-1.58-.55-3.2-.21-4.85,.34-1.64,1.02-3.02,2.05-4.14Zm-1.26,7.98c.41,.9,1.12,1.69,2.13,2.36,1.01,.67,2.28,1.16,3.82,1.47,1.62,.33,3.12,.39,4.5,.16s2.53-.74,3.44-1.52c.92-.79,1.5-1.8,1.76-3.06,.33-1.6-.02-2.96-1.05-4.08-1.03-1.11-2.63-1.89-4.8-2.34-1.71-.35-3.29-.41-4.75-.16-1.46,.24-2.66,.74-3.6,1.49-.95,.75-1.54,1.7-1.77,2.85-.2,.99-.1,1.93,.31,2.83Z"/><path class="cls-1" d="M254.6,197.82c-.1-.04-.14-.08-.13-.11,.22-.57,.41-1.02,.56-1.35l.75-1.85,.71-1.9c.11-.33,.27-.76,.49-1.32,.02-.05,.08-.06,.18-.02s.14,.08,.12,.13c-.28,.7-.38,1.21-.31,1.53,.07,.32,.37,.58,.91,.79l.44,.14,10.49,3.5-10.11-9.94c-.05-.06-.06-.14-.02-.24,.04-.1,.1-.15,.18-.16l14.58-1.62-9-3.76c-.9-.37-1.68-.47-2.34-.29s-1.12,.61-1.39,1.3c-.02,.05-.08,.06-.18,.02-.1-.04-.14-.08-.12-.13,.18-.45,.32-.8,.44-1.05l.57-1.37,.6-1.59c.09-.27,.22-.64,.4-1.09,.02-.05,.08-.06,.18-.02,.1,.04,.14,.08,.12,.13-.27,.69-.22,1.33,.14,1.94,.36,.61,.98,1.09,1.87,1.46l10.32,4.3,.04-.02c.75-.09,1.34-.26,1.77-.51,.43-.25,.73-.61,.92-1.08,.02-.05,.08-.06,.18-.02,.1,.04,.14,.08,.12,.13l-.49,1.17c-.11,.23-.24,.53-.38,.9l-.5,1.34c-.04,.16-.11,.35-.2,.59-.09,.22-.23,.36-.42,.41-.2,.06-.64,.13-1.34,.23l-12.43,1.45,9.09,9.07c.2,.19,.32,.36,.37,.51,.05,.15,.04,.31-.03,.49-.06,.15-.13,.32-.23,.51-.09,.19-.19,.41-.29,.66l-.56,1.49c-.08,.24-.2,.58-.37,1.02-.02,.05-.08,.06-.18,.02-.1-.04-.14-.08-.12-.13,.31-.79,.37-1.42,.19-1.9s-.61-.83-1.3-1.06l-11.65-3.87c-.53-.17-.93-.25-1.21-.25s-.5,.11-.67,.32c-.18,.21-.37,.58-.57,1.09-.01,.03-.07,.03-.17,0Z"/><path class="cls-1" d="M251.27,211.5s-.06,.08-.11,.11-.08,.03-.09,.03c-1.13-.86-2.19-1.57-3.19-2.14-.12-.07-.2-.15-.23-.22-.03-.08,0-.19,.08-.33l5.94-10.35s.09-.04,.18,.01,.13,.1,.1,.15c-.29,.5-.46,.88-.51,1.16-.05,.27,.01,.51,.19,.72,.18,.21,.51,.45,.98,.71l10.84,6.22c.47,.27,.83,.43,1.1,.47,.26,.05,.5-.02,.72-.21,.22-.19,.47-.52,.75-1,.03-.05,.09-.04,.18,.01s.13,.1,.1,.15l-5.7,9.93c-.09,.16-.2,.19-.34,.11l-3.14-1.74s-.03-.08,0-.17c.03-.1,.08-.14,.13-.13,1.05,.27,1.96,.23,2.74-.11,.78-.34,1.44-1,2-1.96l.4-.7c.27-.47,.37-.87,.29-1.21-.08-.33-.33-.62-.75-.87l-4.78-2.74-1.12,1.94c-.52,.91-.76,1.69-.73,2.35,.03,.66,.33,1.16,.89,1.48,.05,.03,.04,.08,0,.17s-.1,.12-.14,.09l-2.09-1.23-1.14-.62c-.55-.27-.98-.5-1.29-.68-.03-.02-.02-.07,.03-.17,.05-.09,.1-.13,.13-.11,.64,.37,1.28,.41,1.93,.13,.65-.28,1.24-.88,1.77-1.8l1.1-1.92-5.29-3.04c-.45-.26-.84-.37-1.16-.32-.32,.05-.58,.26-.8,.63l-.44,.77c-.7,1.22-1.01,2.34-.93,3.36,.08,1.02,.54,2,1.39,2.95,.03,.02,.03,.06,0,.12Z"/><path class="cls-1" d="M252.1,223.97s-.01-.1,.05-.17c.07-.06,.12-.08,.16-.04,.51,.52,1.17,1.17,1.99,1.97,.82,.8,1.45,1.38,1.9,1.75,.07,.06,.07,.12,0,.2s-.13,.09-.2,.03c-.3-.25-.78,.01-1.44,.8-1.03,1.16-2.21,2.53-3.53,4.12-.68,.82-1.39,1.69-2.12,2.63l-1.15,1.43c-.44,.53-.72,.94-.86,1.24-.13,.3-.12,.57,.03,.81,.04,.06,.03,.13-.03,.2-.06,.08-.12,.09-.18,.04-.38-.39-1.01-.98-1.88-1.79s-1.59-1.44-2.14-1.9c-.04-.03-.03-.09,.02-.16s.11-.09,.17-.07c1.24,.68,2.36,.96,3.36,.83,1-.12,1.85-.6,2.54-1.43,.33-.4,.47-.74,.41-1.01s-.34-.61-.82-1.02l-9.57-7.96c-.43-.36-.78-.57-1.04-.65s-.53-.03-.79,.15c-.27,.18-.61,.52-1.04,1.03-.04,.04-.09,.03-.18-.04-.08-.07-.11-.12-.07-.17,.41-.5,.75-.89,1-1.17l1.45-1.71,1.38-1.7c.23-.3,.56-.71,.98-1.22,.03-.04,.09-.03,.18,.04,.08,.07,.11,.12,.07,.17-.42,.5-.69,.9-.82,1.2-.13,.3-.14,.58,0,.83,.13,.26,.4,.56,.81,.9l9.61,8c.47,.39,.84,.59,1.11,.61s.57-.17,.89-.56c1.37-1.65,1.28-3.72-.26-6.23Z"/><path class="cls-1" d="M229.99,232.09c1.49-.29,2.95-.18,4.38,.34,1.43,.52,2.67,1.37,3.73,2.54,1.24,1.38,1.96,2.87,2.15,4.48,.19,1.61-.03,3.15-.68,4.63s-1.53,2.73-2.67,3.75c-1.27,1.15-2.65,1.86-4.15,2.13-1.5,.27-2.95,.16-4.34-.36-1.39-.51-2.59-1.31-3.58-2.41-1.1-1.22-1.78-2.62-2.06-4.21-.28-1.59-.14-3.17,.4-4.73,.54-1.56,1.45-2.91,2.7-4.04,1.24-1.12,2.61-1.83,4.1-2.12Zm-5.74,5.69c-.2,.97-.09,2.02,.33,3.16s1.15,2.29,2.2,3.45c1.11,1.23,2.29,2.16,3.54,2.79,1.25,.63,2.47,.9,3.68,.81s2.28-.57,3.23-1.42c1.22-1.1,1.74-2.4,1.57-3.91-.17-1.51-1-3.08-2.48-4.72-1.17-1.3-2.41-2.28-3.73-2.94-1.32-.67-2.58-.98-3.79-.93s-2.24,.46-3.11,1.25c-.75,.68-1.22,1.5-1.43,2.47Z"/><path class="cls-1" d="M196.58,255.04c-.05-.09-.06-.15-.01-.18,.54-.32,.99-.56,1.32-.74l1.81-1.02,2.09-1.24c.27-.18,.65-.41,1.13-.69,.05-.03,.1,0,.15,.1,.05,.09,.06,.15,.01,.18-.58,.33-.97,.62-1.19,.85s-.31,.48-.28,.76c.03,.27,.19,.65,.47,1.13l3.12,5.37,7.54-4.38-3.12-5.37c-.27-.47-.52-.79-.74-.96-.22-.17-.49-.22-.8-.14-.31,.08-.75,.28-1.33,.62-.03,.02-.07-.02-.13-.11-.05-.09-.07-.15-.03-.17,.54-.32,.98-.56,1.32-.74l2.04-1.16,1.74-1.04c.3-.2,.73-.45,1.27-.77,.03-.02,.07,.02,.13,.11,.05,.09,.07,.15,.04,.17-.54,.32-.92,.58-1.12,.81-.2,.22-.29,.47-.25,.75,.04,.28,.19,.65,.46,1.12l6.28,10.81c.27,.47,.52,.78,.74,.95,.22,.16,.48,.22,.77,.16,.29-.06,.7-.24,1.23-.54,.05-.03,.1,0,.15,.1,.05,.09,.06,.15,.01,.18l-1.27,.71c-.73,.38-1.32,.7-1.75,.96-.59,.34-1.27,.76-2.03,1.24l-1.27,.77s-.07-.02-.13-.11c-.05-.09-.07-.15-.03-.17,.56-.33,.95-.61,1.16-.86,.21-.25,.3-.51,.27-.8-.03-.29-.18-.66-.45-1.13l-2.75-4.74-7.54,4.38,2.75,4.74c.27,.47,.52,.79,.74,.96,.22,.17,.5,.23,.81,.17,.32-.06,.77-.26,1.34-.59,.05-.03,.1,0,.15,.1,.05,.09,.06,.15,.01,.18l-1.16,.64c-.8,.42-1.51,.81-2.13,1.17-.42,.24-1.01,.61-1.77,1.09l-1.29,.78s-.1,0-.15-.1c-.05-.09-.06-.15-.01-.18,.53-.31,.9-.58,1.1-.81,.21-.24,.29-.49,.25-.75s-.2-.63-.47-1.1l-6.28-10.81c-.27-.47-.52-.79-.73-.96-.22-.18-.47-.23-.77-.16-.29,.07-.71,.26-1.26,.58-.05,.03-.1,0-.15-.1Z"/><path class="cls-1" d="M185.41,263.99s-.1,.03-.15,.02-.08-.02-.09-.04c-.37-1.37-.77-2.58-1.2-3.65-.05-.13-.07-.24-.04-.32,.03-.08,.11-.15,.26-.21l11.04-4.52s.1,.02,.14,.12c.04,.1,.04,.16-.01,.18-.53,.22-.9,.42-1.11,.6-.21,.18-.3,.41-.29,.69,.02,.28,.12,.66,.33,1.16l4.74,11.57c.2,.5,.4,.85,.58,1.05,.18,.2,.41,.29,.7,.28,.29-.01,.69-.12,1.21-.33,.05-.02,.1,.02,.14,.12s.04,.16-.01,.18l-10.59,4.34c-.17,.07-.28,.03-.34-.12l-1.41-3.3s.02-.08,.11-.13c.08-.05,.15-.06,.18-.02,.66,.86,1.41,1.39,2.23,1.6,.82,.21,1.75,.1,2.79-.32l.75-.31c.5-.2,.82-.46,.97-.77,.14-.31,.12-.69-.06-1.14l-2.09-5.1-2.07,.85c-.97,.4-1.64,.87-2.02,1.41-.38,.54-.45,1.12-.2,1.72,.02,.05-.01,.09-.11,.13-.09,.04-.15,.03-.17-.02l-.9-2.26-.52-1.19c-.26-.55-.47-1-.6-1.33-.01-.03,.03-.07,.13-.11,.1-.04,.16-.04,.17-.01,.28,.68,.76,1.11,1.45,1.29,.68,.18,1.52,.06,2.5-.34l2.05-.84-2.31-5.65c-.2-.48-.44-.8-.71-.96-.28-.16-.62-.16-1.02,0l-.82,.34c-1.3,.53-2.23,1.22-2.8,2.08-.57,.85-.8,1.91-.71,3.18,.01,.03-.01,.06-.08,.09Z"/><path class="cls-1" d="M178,264.11c-.13-.45-.25-.77-.38-.95s-.3-.28-.52-.29-.55,.04-1,.17l-.88,.25c-1.35,.38-2.42,1.07-3.21,2.06s-1.17,2.16-1.16,3.48c0,.04-.02,.06-.09,.08-.03,0-.08,0-.13,0-.05-.01-.08-.03-.08-.05-.32-1.76-.65-3.21-.97-4.36-.04-.14-.04-.25,0-.32,.04-.08,.13-.14,.27-.17l12.27-3.44s.07,.04,.1,.14c.03,.1,.03,.16,0,.17-.55,.16-.95,.31-1.17,.47-.23,.16-.35,.38-.38,.65-.02,.28,.04,.68,.18,1.2l3.37,12.04c.15,.52,.3,.89,.46,1.1,.16,.22,.39,.33,.68,.36,.29,.02,.7-.04,1.24-.19,.04,0,.07,.04,.1,.14,.03,.1,.03,.16,0,.17l-1.33,.35c-.81,.19-1.47,.36-1.99,.5-.52,.15-1.17,.35-1.96,.61l-1.32,.4c-.05,.01-.09-.03-.12-.13-.03-.1-.02-.16,.03-.18,.54-.15,.92-.31,1.16-.48,.23-.17,.36-.39,.37-.67,.02-.28-.05-.67-.19-1.19l-3.34-11.91Z"/><path class="cls-1" d="M163.91,267.39c-.07-.46-.16-.79-.27-.98-.1-.19-.26-.31-.48-.35-.22-.04-.55-.02-1.02,.05l-.91,.14c-1.39,.22-2.53,.78-3.42,1.68-.89,.9-1.41,2.01-1.54,3.32,0,.04-.03,.06-.1,.07-.04,0-.08,0-.13-.02s-.08-.04-.08-.06c-.12-1.79-.28-3.26-.47-4.44-.02-.14,0-.25,.04-.32,.05-.07,.15-.12,.29-.14l12.58-2.02s.06,.04,.08,.15c.02,.11,0,.16-.03,.17-.57,.09-.97,.2-1.22,.33-.24,.13-.39,.33-.45,.61-.06,.27-.04,.68,.04,1.21l1.98,12.34c.09,.53,.2,.92,.33,1.15s.35,.38,.63,.43,.7,.04,1.25-.05c.04,0,.06,.04,.08,.15,.02,.11,0,.16-.03,.17l-1.36,.19c-.82,.1-1.5,.19-2.03,.27-.53,.09-1.21,.21-2.02,.38l-1.36,.25c-.05,0-.09-.04-.11-.15-.02-.11,0-.16,.05-.17,.55-.09,.95-.2,1.2-.34,.25-.14,.4-.35,.45-.62s.03-.67-.06-1.21l-1.96-12.21Z"/><path class="cls-1" d="M103.38,278.91c.02-.11,.05-.16,.08-.15,.65,.12,1.32-.04,2-.49s1.3-1.12,1.85-2.03l7.38-12.18c.03-.07,.14-.08,.31-.05s.27,.09,.27,.16l2.04,7.83,4.03-6.69c.03-.07,.14-.08,.31-.05,.18,.03,.27,.09,.27,.16l4.06,15.63c.16,.62,.3,1.06,.42,1.34,.12,.28,.28,.49,.46,.62,.19,.14,.45,.24,.78,.3,.05,.01,.07,.07,.05,.17-.02,.11-.06,.15-.11,.14-.27-.05-.45-.09-.55-.13-.35-.1-.8-.21-1.37-.31-1.18-.22-2.19-.39-3.01-.51-.23-.03-.52-.07-.85-.13-.05,0-.07-.07-.05-.17,.02-.11,.06-.15,.11-.14,.44,.08,.76,.1,.97,.04,.2-.05,.33-.2,.37-.43,.06-.3-.04-.92-.28-1.87l-2.87-11.03-2.5,4.06,1.77,6.79c.18,.69,.38,1.22,.58,1.58,.21,.36,.46,.57,.76,.62,.05,0,.07,.07,.05,.17-.02,.11-.06,.15-.11,.14-.18-.03-.38-.09-.62-.16s-.57-.15-1.01-.23c-1.01-.19-1.85-.33-2.53-.42-.18-.02-.41-.05-.69-.1-.05,0-.07-.07-.05-.17s.06-.15,.11-.14c.25,.05,.44,.05,.56,0,.13-.04,.2-.14,.23-.3,.06-.3-.06-.99-.35-2.07l-.7-2.69-1,1.65c-.58,.93-.92,1.66-1.01,2.17-.1,.51,.08,.81,.52,.89,.05,0,.07,.07,.05,.17-.02,.11-.06,.15-.11,.14-.14-.03-.29-.07-.46-.13-.16-.06-.58-.15-1.25-.28-.3-.06-.67-.11-1.1-.15l-.99-.16s-.04-.06-.02-.17c.02-.11,.05-.16,.08-.15,1.19,.22,2.36-.64,3.53-2.58l1.48-2.44-1.92-7.31-5.15,8.51c-.32,.53-.52,1.02-.61,1.48-.1,.55-.05,1.01,.17,1.38s.55,.6,1.01,.68c.05,.01,.07,.07,.05,.17s-.06,.15-.11,.14l-1.22-.26c-.63-.16-1.21-.28-1.74-.38-.35-.07-.76-.12-1.23-.18l-1.15-.19s-.04-.06-.02-.17Z"/><path class="cls-1" d="M93.22,261.93c-.05-.02-.09-.05-.13-.09-.03-.04-.05-.07-.04-.09,.64-1.26,1.15-2.44,1.53-3.53,.05-.14,.11-.22,.18-.27,.07-.04,.18-.04,.34,.02l11.25,3.97c.05,.02,.06,.08,.02,.18-.04,.1-.08,.14-.13,.13-.54-.19-.95-.29-1.23-.29-.28,0-.5,.11-.67,.32-.17,.22-.35,.58-.53,1.09l-4.16,11.79c-.18,.51-.27,.9-.27,1.17,0,.27,.11,.49,.33,.68,.22,.18,.6,.37,1.12,.55,.05,.02,.06,.08,.02,.18-.04,.1-.08,.14-.13,.12l-10.79-3.81c-.17-.06-.23-.17-.17-.32l1.15-3.4s.07-.04,.17-.03c.1,.02,.15,.05,.15,.11-.08,1.08,.12,1.97,.6,2.67,.48,.7,1.24,1.24,2.29,1.61l.76,.27c.51,.18,.92,.2,1.24,.06,.32-.14,.55-.43,.72-.89l1.83-5.19-2.11-.75c-.98-.35-1.8-.45-2.45-.29-.65,.15-1.08,.54-1.29,1.15-.02,.05-.07,.06-.17,.03s-.13-.08-.11-.13l.83-2.28,.41-1.23c.17-.59,.31-1.05,.44-1.39,.01-.03,.07-.03,.17,0,.1,.04,.15,.07,.13,.11-.25,.7-.17,1.34,.22,1.92s1.09,1.06,2.09,1.41l2.09,.74,2.03-5.75c.17-.49,.21-.89,.11-1.19-.1-.3-.36-.53-.77-.67l-.84-.3c-1.32-.47-2.48-.57-3.47-.31-.99,.26-1.87,.89-2.65,1.9-.01,.03-.05,.04-.12,.01Z"/><path class="cls-1" d="M87.63,257.08c.21-.42,.32-.74,.35-.96,.03-.22-.04-.4-.19-.56-.15-.16-.44-.34-.86-.54l-.82-.4c-1.26-.62-2.52-.82-3.77-.59s-2.31,.83-3.18,1.83c-.02,.03-.06,.03-.12,0-.03-.02-.06-.05-.09-.09-.03-.04-.04-.07-.03-.09,.93-1.53,1.65-2.83,2.18-3.9,.06-.13,.14-.21,.22-.24,.08-.03,.19-.01,.32,.05l11.45,5.6s.02,.07-.02,.17-.09,.14-.12,.12c-.52-.25-.91-.4-1.19-.43-.27-.03-.51,.04-.72,.24-.2,.19-.42,.53-.66,1.01l-5.49,11.23c-.24,.48-.37,.86-.39,1.13-.02,.27,.07,.51,.27,.72,.2,.21,.55,.43,1.05,.68,.03,.02,.02,.07-.02,.17-.05,.1-.09,.14-.12,.12l-1.23-.63c-.73-.4-1.33-.71-1.82-.95-.48-.24-1.11-.52-1.87-.85l-1.25-.58s-.05-.08,0-.18,.1-.13,.14-.11c.5,.25,.9,.38,1.18,.41,.29,.03,.53-.05,.72-.25,.2-.19,.41-.53,.65-1.02l5.43-11.11Z"/><path class="cls-1" d="M60.1,258.01c-.65-.59-1.12-1.11-1.4-1.55-.11-.13-.15-.25-.15-.34,0-.09,.05-.23,.13-.42l1.79-3.31s.09-.05,.17-.02c.09,.03,.12,.09,.09,.16-.27,1.52-.19,2.89,.24,4.1,.43,1.21,1.21,2.19,2.34,2.93,1.49,.98,3,1.19,4.53,.62,1.53-.56,2.91-1.77,4.12-3.62,.91-1.38,1.52-2.79,1.83-4.23,.31-1.43,.28-2.75-.09-3.95-.36-1.2-1.06-2.13-2.08-2.81-.96-.63-2.03-.88-3.21-.74-1.18,.14-2.5,.67-3.96,1.58-.05,.05-.12,.04-.19-.03-.07-.07-.09-.13-.06-.17l2.36-2.85c.15-.16,.26-.25,.33-.28s.2-.03,.37,0c1.67,.38,3.2,1.04,4.62,1.97,1.83,1.21,3.13,2.58,3.88,4.12,.75,1.54,1.05,3.06,.89,4.56-.16,1.5-.64,2.86-1.44,4.08-.94,1.43-2.16,2.44-3.65,3.03-1.5,.59-3.09,.76-4.77,.52-1.68-.24-3.26-.85-4.73-1.82-.66-.43-1.32-.95-1.96-1.53Z"/><path class="cls-1" d="M61.74,239c.45,1.45,.49,2.92,.13,4.39-.37,1.47-1.08,2.8-2.13,3.98-1.24,1.38-2.65,2.25-4.23,2.61-1.58,.36-3.14,.3-4.68-.18-1.54-.48-2.88-1.24-4.01-2.26-1.27-1.14-2.13-2.44-2.56-3.9-.43-1.46-.47-2.91-.1-4.35,.36-1.44,1.03-2.71,2.02-3.81,1.09-1.22,2.42-2.05,3.97-2.49,1.56-.44,3.14-.48,4.75-.1,1.61,.38,3.04,1.13,4.3,2.26,1.25,1.12,2.09,2.4,2.54,3.86Zm-6.27-5.11c-.99-.1-2.02,.12-3.11,.66-1.09,.54-2.15,1.39-3.2,2.56-1.1,1.23-1.9,2.5-2.4,3.81-.5,1.31-.63,2.56-.42,3.74,.22,1.19,.8,2.21,1.75,3.06,1.22,1.09,2.57,1.48,4.05,1.15,1.48-.33,2.96-1.32,4.44-2.97,1.17-1.3,2.01-2.64,2.53-4.02s.7-2.67,.52-3.86-.7-2.18-1.57-2.96c-.75-.67-1.62-1.06-2.61-1.16Z"/><path class="cls-1" d="M37.17,211.19c.08-.07,.14-.09,.16-.06,.38,.48,.68,.87,.89,1.16l1.22,1.58,1.28,1.57c.23,.26,.53,.62,.9,1.08,.03,.04,0,.1-.08,.16-.08,.07-.14,.08-.18,.04-.47-.59-.86-.94-1.17-1.04-.31-.1-.69,.03-1.14,.39l-.34,.31-8.29,7.32,13.67-3.76c.08-.02,.15,.02,.22,.1,.07,.08,.08,.16,.05,.24l-5.92,13.43,7.76-5.9c.77-.59,1.25-1.22,1.42-1.87,.18-.66,.04-1.28-.42-1.85-.03-.04,0-.1,.08-.16,.08-.07,.14-.08,.18-.04,.3,.38,.53,.68,.68,.9l.9,1.18,1.08,1.31c.19,.21,.44,.51,.74,.89,.03,.04,0,.1-.08,.16-.08,.07-.14,.08-.18,.04-.46-.58-1.04-.86-1.75-.85-.71,0-1.44,.3-2.2,.88l-8.9,6.77v.04c-.3,.7-.45,1.29-.45,1.78,0,.49,.16,.94,.47,1.33,.03,.04,0,.1-.08,.16s-.14,.08-.18,.04l-.77-1.01c-.14-.21-.34-.47-.58-.78l-.91-1.1c-.11-.12-.25-.27-.41-.47-.15-.18-.19-.37-.15-.57,.05-.2,.21-.62,.47-1.27l4.98-11.48-12.41,3.31c-.26,.07-.47,.09-.62,.06-.15-.03-.29-.12-.41-.28-.1-.13-.21-.28-.32-.45-.11-.17-.26-.37-.42-.58l-1.01-1.23c-.17-.19-.4-.46-.69-.83-.03-.04,0-.1,.08-.17,.08-.07,.14-.08,.18-.04,.53,.66,1.04,1.04,1.54,1.12s1.03-.11,1.57-.59l9.19-8.14c.41-.38,.69-.68,.83-.91s.16-.48,.07-.74c-.09-.26-.31-.61-.66-1.05-.02-.03,0-.08,.09-.14Z"/><path class="cls-1" d="M26.98,201.44s-.04-.1-.04-.15,0-.08,.02-.09c1.31-.55,2.46-1.11,3.45-1.69,.12-.07,.23-.1,.31-.08,.08,.01,.16,.09,.24,.23l5.98,10.33s0,.1-.1,.15-.15,.06-.18,.01c-.29-.5-.54-.84-.75-1.02-.21-.18-.45-.24-.72-.19s-.64,.21-1.11,.48l-10.82,6.26c-.47,.27-.79,.51-.96,.71-.17,.2-.23,.45-.19,.73s.21,.67,.49,1.15c.03,.05,0,.1-.1,.15-.09,.05-.15,.06-.18,.01l-5.74-9.91c-.09-.16-.07-.27,.07-.36l3.08-1.85s.08,.01,.14,.09c.07,.08,.08,.14,.04,.18-.76,.77-1.19,1.58-1.28,2.42-.09,.84,.14,1.75,.7,2.72l.41,.7c.27,.47,.57,.75,.9,.85,.33,.1,.7,.03,1.12-.21l4.77-2.76-1.12-1.94c-.52-.9-1.08-1.51-1.67-1.81-.59-.3-1.17-.29-1.73,.03-.05,.03-.09,0-.14-.09-.05-.09-.05-.14,0-.17l2.12-1.19,1.11-.67c.51-.34,.92-.6,1.23-.78,.03-.02,.07,.02,.13,.11,.05,.09,.07,.15,.03,.17-.64,.37-1,.91-1.08,1.61-.08,.7,.14,1.51,.68,2.43l1.11,1.92,5.28-3.06c.45-.26,.74-.54,.86-.84,.12-.3,.07-.63-.15-1.01l-.45-.77c-.7-1.21-1.52-2.04-2.44-2.49-.92-.44-2-.54-3.25-.27-.03,.02-.06,0-.1-.07Z"/><path class="cls-1" d="M15.77,195.89c.06,0,.1,.04,.12,.13,.02,.09,0,.14-.04,.16-.7,.18-1.6,.42-2.71,.73-1.1,.31-1.93,.56-2.47,.76-.08,.03-.14,0-.18-.09-.03-.09,0-.15,.08-.19,.37-.14,.38-.69,.03-1.65-.48-1.47-1.08-3.18-1.79-5.12-.36-1-.77-2.05-1.21-3.15l-.66-1.71c-.23-.64-.45-1.1-.64-1.36-.19-.26-.43-.39-.72-.38-.07,0-.13-.04-.16-.13-.03-.09-.02-.15,.05-.18,.53-.13,1.36-.38,2.49-.73,1.14-.35,2.04-.65,2.72-.89,.05-.02,.09,.01,.12,.1s.02,.14-.02,.18c-1.21,.73-2.01,1.56-2.41,2.49-.4,.93-.41,1.9-.04,2.92,.18,.49,.4,.78,.67,.86,.27,.08,.7,.02,1.29-.2l11.69-4.28c.52-.19,.89-.38,1.09-.57,.2-.19,.29-.44,.27-.76-.02-.32-.15-.79-.37-1.42-.02-.05,.02-.09,.12-.13s.16-.03,.18,.02c.22,.61,.39,1.09,.5,1.45l.74,2.11,.78,2.04c.15,.35,.33,.84,.56,1.46,.02,.05-.02,.09-.12,.13s-.16,.03-.18-.02c-.22-.61-.43-1.04-.62-1.31-.19-.26-.43-.41-.72-.43-.29-.02-.68,.06-1.19,.25l-11.74,4.29c-.57,.21-.94,.43-1.08,.65-.15,.23-.13,.58,.04,1.05,.74,2.01,2.57,2.98,5.52,2.9Z"/><path class="cls-1" d="M19.86,172.71c-.5,1.44-1.33,2.64-2.5,3.61-1.17,.97-2.52,1.62-4.08,1.94-1.81,.38-3.47,.25-4.95-.4s-2.71-1.62-3.66-2.92c-.95-1.3-1.59-2.7-1.9-4.2-.35-1.67-.27-3.23,.25-4.66,.52-1.43,1.35-2.62,2.49-3.57,1.14-.95,2.44-1.57,3.88-1.88,1.6-.34,3.16-.22,4.68,.34,1.52,.57,2.81,1.48,3.88,2.73,1.07,1.26,1.78,2.71,2.13,4.37,.34,1.64,.27,3.18-.23,4.61Zm-2.03-7.82c-.74-.66-1.7-1.1-2.9-1.31-1.19-.21-2.56-.15-4.09,.17-1.62,.34-3.02,.89-4.19,1.65-1.17,.76-2.02,1.68-2.55,2.77-.53,1.09-.66,2.25-.4,3.5,.34,1.6,1.2,2.71,2.59,3.32s3.16,.69,5.33,.23c1.71-.36,3.18-.94,4.42-1.74,1.24-.8,2.14-1.74,2.71-2.8s.73-2.17,.49-3.32c-.21-.99-.68-1.81-1.42-2.48Z"/><path class="cls-1" d="M17.02,132.29c.11,0,.16,.03,.16,.08-.01,.63-.03,1.13-.05,1.51l-.06,2.08v2.43c0,.32,0,.77,0,1.32,0,.05-.06,.08-.16,.08-.11,0-.16-.03-.16-.08,.01-.67-.03-1.15-.11-1.46-.08-.31-.25-.52-.5-.63-.25-.11-.65-.17-1.21-.18l-6.21-.1-.14,8.72,6.21,.1c.54,0,.94-.04,1.2-.14s.44-.31,.54-.61c.1-.3,.15-.79,.16-1.46,0-.04,.06-.05,.16-.05,.11,0,.16,.02,.16,.06-.01,.63-.03,1.13-.05,1.51l-.06,2.35v2.03c0,.36,0,.86,0,1.48,0,.04-.05,.05-.16,.05-.11,0-.16-.02-.16-.06,.01-.63-.03-1.09-.11-1.38s-.26-.49-.52-.6c-.26-.11-.66-.17-1.2-.18l-12.5-.2c-.54,0-.94,.04-1.19,.14-.25,.1-.43,.29-.54,.57-.1,.28-.16,.72-.17,1.33,0,.05-.06,.08-.16,.08-.11,0-.16-.03-.16-.08l.05-1.46c.05-.83,.08-1.49,.09-2,.01-.68,0-1.48-.02-2.38v-1.49s.05-.05,.16-.05,.16,.02,.16,.06c-.01,.65,.04,1.13,.14,1.43s.28,.52,.54,.64c.26,.12,.66,.19,1.2,.2l5.48,.09,.14-8.72-5.48-.09c-.54,0-.94,.04-1.2,.14-.26,.1-.45,.31-.56,.61-.11,.3-.17,.79-.19,1.46,0,.05-.06,.08-.16,.08s-.16-.03-.16-.08l.05-1.32c.05-.9,.08-1.71,.09-2.43,0-.49,0-1.18-.02-2.08v-1.51c0-.05,.05-.08,.16-.08,.11,0,.16,.03,.16,.08,0,.61,.03,1.07,.13,1.37,.09,.3,.27,.5,.52,.6s.65,.16,1.19,.17l12.5,.2c.54,0,.94-.03,1.2-.13,.26-.09,.44-.29,.54-.57,.09-.29,.15-.74,.16-1.37,0-.05,.06-.08,.16-.08Z"/><path class="cls-1" d="M14.73,118.13c0-.05,.03-.1,.06-.14,.03-.04,.06-.06,.08-.06,1.37,.37,2.62,.63,3.76,.79,.14,.02,.24,.06,.3,.12,.06,.06,.07,.17,.05,.33l-1.63,11.82c0,.05-.06,.07-.17,.06-.11-.01-.16-.05-.15-.1,.08-.57,.09-.99,.04-1.26-.05-.27-.2-.47-.45-.59-.25-.12-.64-.22-1.17-.3l-12.38-1.71c-.53-.07-.93-.08-1.2-.03-.26,.06-.46,.21-.6,.46-.13,.25-.24,.66-.32,1.21,0,.05-.06,.07-.17,.06-.11-.02-.16-.05-.15-.1l1.56-11.34c.02-.18,.12-.26,.28-.23l3.56,.44s.06,.06,.06,.16c0,.1-.02,.16-.08,.17-1.07,.14-1.91,.52-2.5,1.13-.59,.61-.97,1.47-1.12,2.57l-.11,.8c-.07,.54-.01,.94,.19,1.23,.2,.28,.54,.46,1.02,.52l5.46,.75,.31-2.22c.14-1.03,.07-1.85-.21-2.45-.28-.6-.74-.95-1.38-1.04-.05,0-.07-.06-.06-.16,.01-.1,.05-.14,.1-.14l2.4,.36,1.29,.15c.61,.05,1.1,.1,1.45,.15,.04,0,.05,.06,.03,.17-.01,.11-.04,.16-.08,.15-.73-.1-1.34,.1-1.84,.6s-.82,1.28-.96,2.33l-.3,2.19,6.04,.83c.52,.07,.91,.03,1.19-.14,.28-.16,.44-.46,.5-.88l.12-.88c.19-1.39,.06-2.54-.39-3.46-.46-.92-1.25-1.65-2.39-2.21-.04,0-.05-.04-.04-.11Z"/><path class="cls-1" d="M18.34,111.67c.45,.12,.79,.17,1.01,.15s.39-.12,.51-.3c.12-.18,.24-.5,.36-.95l.23-.89c.35-1.36,.29-2.63-.18-3.81-.47-1.18-1.28-2.09-2.43-2.74-.03,0-.04-.05-.03-.12,0-.03,.03-.07,.07-.11,.04-.04,.06-.05,.08-.05,1.69,.6,3.1,1.05,4.25,1.35,.14,.04,.23,.09,.28,.17,.05,.08,.05,.19,.01,.32l-3.18,12.34s-.07,.04-.17,.01-.15-.06-.14-.09c.14-.56,.2-.97,.18-1.25-.02-.27-.15-.49-.38-.65-.23-.16-.6-.31-1.13-.44l-12.11-3.12c-.52-.13-.92-.19-1.19-.15-.27,.03-.48,.17-.65,.4s-.31,.63-.45,1.17c0,.04-.07,.04-.17,.01-.1-.03-.15-.06-.14-.09l.37-1.33c.24-.79,.43-1.45,.56-1.97s.29-1.19,.46-2l.32-1.34c.01-.05,.07-.06,.18-.04,.1,.03,.15,.07,.14,.12-.14,.54-.19,.95-.17,1.24s.16,.51,.39,.66c.23,.15,.61,.3,1.13,.43l11.98,3.08Z"/><path class="cls-1" d="M22.57,97.84c.44,.17,.77,.26,.98,.26,.22,0,.4-.07,.54-.24,.14-.17,.3-.47,.46-.91l.33-.86c.5-1.31,.59-2.58,.26-3.8-.33-1.23-1.03-2.23-2.1-3-.03-.01-.04-.05-.01-.12,.01-.03,.04-.07,.08-.1,.04-.03,.07-.05,.09-.04,1.61,.79,2.96,1.4,4.07,1.82,.13,.05,.22,.12,.26,.2,.04,.08,.03,.19-.02,.32l-4.57,11.9s-.07,.03-.17,0c-.1-.04-.15-.07-.13-.11,.21-.54,.31-.94,.32-1.22,0-.28-.09-.51-.3-.69-.21-.19-.56-.38-1.07-.57l-11.67-4.48c-.5-.19-.89-.29-1.16-.29s-.5,.11-.69,.33c-.19,.22-.38,.59-.58,1.11-.01,.03-.07,.03-.17,0-.1-.04-.15-.07-.13-.11l.52-1.28c.33-.76,.59-1.39,.79-1.9,.19-.5,.42-1.15,.69-1.94l.47-1.3c.02-.05,.08-.06,.18-.02,.1,.04,.14,.08,.12,.13-.2,.52-.3,.93-.31,1.21s.1,.52,.31,.7,.57,.36,1.07,.56l11.54,4.43Z"/></svg>